# xmcd
#
# Track frame offsets:
#	156
#	18114
#	35699
#	49644
#	68460
#	85653
#	102078
#	116390
#	135796
#	152182
#	170793
#	186815
#
# Disc length: 2783 seconds
#
# Revision: 1
# Processed by: cddbd v1.5.1PL0 Copyright (c) Steve Scherf et al.
# Submitted via: audiograbber 1.83.01
#
DISCID=890add0c
DTITLE=Bonita J. Louw - Bonita
DYEAR=2005
DGENRE=Rock
TTITLE0=is it for real
TTITLE1=big bad world
TTITLE2=knock 3 times
TTITLE3=lose you now
TTITLE4=love 'round midnight
TTITLE5=on the other side
TTITLE6=on my way
TTITLE7=missing you
TTITLE8=dead end sign
TTITLE9=superstar
TTITLE10=you don't know me
TTITLE11=it could never be you
EXTD=
EXTT0=
EXTT1=
EXTT2=
EXTT3=
EXTT4=
EXTT5=
EXTT6=
EXTT7=
EXTT8=
EXTT9=
EXTT10=
EXTT11=
PLAYORDER=
